<svg width="298" height="183" viewBox="0 0 298 183" fill="none" xmlns="http://www.w3.org/2000/svg">
<rect width="298" height="183" fill="#D7D7D7"/>
<path d="M112.987 73.9091V87H111.453L104.32 76.7216H104.192V87H102.607V73.9091H104.141L111.3 84.2131H111.428V73.9091H112.987ZM127.205 80.4545C127.205 81.8352 126.956 83.0284 126.457 84.0341C125.958 85.0398 125.275 85.8153 124.405 86.3608C123.536 86.9062 122.543 87.179 121.426 87.179C120.31 87.179 119.317 86.9062 118.448 86.3608C117.578 85.8153 116.895 85.0398 116.396 84.0341C115.897 83.0284 115.648 81.8352 115.648 80.4545C115.648 79.0739 115.897 77.8807 116.396 76.875C116.895 75.8693 117.578 75.0938 118.448 74.5483C119.317 74.0028 120.31 73.7301 121.426 73.7301C122.543 73.7301 123.536 74.0028 124.405 74.5483C125.275 75.0938 125.958 75.8693 126.457 76.875C126.956 77.8807 127.205 79.0739 127.205 80.4545ZM125.671 80.4545C125.671 79.321 125.481 78.3643 125.102 77.5845C124.727 76.8047 124.218 76.2145 123.574 75.8139C122.935 75.4134 122.219 75.2131 121.426 75.2131C120.634 75.2131 119.916 75.4134 119.272 75.8139C118.633 76.2145 118.124 76.8047 117.745 77.5845C117.37 78.3643 117.182 79.321 117.182 80.4545C117.182 81.5881 117.37 82.5447 117.745 83.3246C118.124 84.1044 118.633 84.6946 119.272 85.0952C119.916 85.4957 120.634 85.696 121.426 85.696C122.219 85.696 122.935 85.4957 123.574 85.0952C124.218 84.6946 124.727 84.1044 125.102 83.3246C125.481 82.5447 125.671 81.5881 125.671 80.4545ZM134.933 87V73.9091H139.356C140.383 73.9091 141.223 74.0945 141.875 74.4652C142.531 74.8317 143.017 75.3281 143.332 75.9545C143.647 76.581 143.805 77.2798 143.805 78.0511C143.805 78.8224 143.647 79.5234 143.332 80.1541C143.021 80.7848 142.539 81.2876 141.887 81.6626C141.235 82.0334 140.4 82.2188 139.382 82.2188H136.211V80.8125H139.331C140.034 80.8125 140.598 80.6911 141.025 80.4482C141.451 80.2053 141.76 79.8771 141.951 79.4638C142.147 79.0462 142.245 78.5753 142.245 78.0511C142.245 77.527 142.147 77.0582 141.951 76.6449C141.76 76.2315 141.449 75.9077 141.018 75.6733C140.588 75.4347 140.017 75.3153 139.305 75.3153H136.518V87H134.933ZM146.359 87V73.9091H147.944V79.7386H154.924V73.9091H156.509V87H154.924V81.1449H147.944V87H146.359ZM170.728 80.4545C170.728 81.8352 170.479 83.0284 169.98 84.0341C169.482 85.0398 168.798 85.8153 167.929 86.3608C167.059 86.9062 166.066 87.179 164.95 87.179C163.833 87.179 162.841 86.9062 161.971 86.3608C161.102 85.8153 160.418 85.0398 159.919 84.0341C159.421 83.0284 159.172 81.8352 159.172 80.4545C159.172 79.0739 159.421 77.8807 159.919 76.875C160.418 75.8693 161.102 75.0938 161.971 74.5483C162.841 74.0028 163.833 73.7301 164.95 73.7301C166.066 73.7301 167.059 74.0028 167.929 74.5483C168.798 75.0938 169.482 75.8693 169.98 76.875C170.479 77.8807 170.728 79.0739 170.728 80.4545ZM169.194 80.4545C169.194 79.321 169.005 78.3643 168.625 77.5845C168.25 76.8047 167.741 76.2145 167.098 75.8139C166.458 75.4134 165.743 75.2131 164.95 75.2131C164.157 75.2131 163.439 75.4134 162.796 75.8139C162.157 76.2145 161.647 76.8047 161.268 77.5845C160.893 78.3643 160.706 79.321 160.706 80.4545C160.706 81.5881 160.893 82.5447 161.268 83.3246C161.647 84.1044 162.157 84.6946 162.796 85.0952C163.439 85.4957 164.157 85.696 164.95 85.696C165.743 85.696 166.458 85.4957 167.098 85.0952C167.741 84.6946 168.25 84.1044 168.625 83.3246C169.005 82.5447 169.194 81.5881 169.194 80.4545ZM172.133 75.3153V73.9091H181.951V75.3153H177.835V87H176.249V75.3153H172.133ZM194.898 80.4545C194.898 81.8352 194.649 83.0284 194.15 84.0341C193.652 85.0398 192.968 85.8153 192.099 86.3608C191.229 86.9062 190.236 87.179 189.12 87.179C188.003 87.179 187.01 86.9062 186.141 86.3608C185.272 85.8153 184.588 85.0398 184.089 84.0341C183.591 83.0284 183.341 81.8352 183.341 80.4545C183.341 79.0739 183.591 77.8807 184.089 76.875C184.588 75.8693 185.272 75.0938 186.141 74.5483C187.01 74.0028 188.003 73.7301 189.12 73.7301C190.236 73.7301 191.229 74.0028 192.099 74.5483C192.968 75.0938 193.652 75.8693 194.15 76.875C194.649 77.8807 194.898 79.0739 194.898 80.4545ZM193.364 80.4545C193.364 79.321 193.175 78.3643 192.795 77.5845C192.42 76.8047 191.911 76.2145 191.268 75.8139C190.628 75.4134 189.912 75.2131 189.12 75.2131C188.327 75.2131 187.609 75.4134 186.966 75.8139C186.327 76.2145 185.817 76.8047 185.438 77.5845C185.063 78.3643 184.876 79.321 184.876 80.4545C184.876 81.5881 185.063 82.5447 185.438 83.3246C185.817 84.1044 186.327 84.6946 186.966 85.0952C187.609 85.4957 188.327 85.696 189.12 85.696C189.912 85.696 190.628 85.4957 191.268 85.0952C191.911 84.6946 192.42 84.1044 192.795 83.3246C193.175 82.5447 193.364 81.5881 193.364 80.4545ZM105.502 95.9091H107.088V104.577C107.088 105.472 106.877 106.271 106.455 106.974C106.037 107.673 105.447 108.224 104.684 108.629C103.921 109.03 103.026 109.23 101.999 109.23C100.972 109.23 100.078 109.03 99.3148 108.629C98.552 108.224 97.9597 107.673 97.5378 106.974C97.1202 106.271 96.9114 105.472 96.9114 104.577V95.9091H98.4966V104.449C98.4966 105.088 98.6373 105.657 98.9185 106.156C99.1998 106.65 99.6003 107.04 100.12 107.325C100.644 107.607 101.271 107.747 101.999 107.747C102.728 107.747 103.355 107.607 103.879 107.325C104.403 107.04 104.803 106.65 105.08 106.156C105.362 105.657 105.502 105.088 105.502 104.449V95.9091ZM110.253 109V95.9091H114.676C115.703 95.9091 116.543 96.0945 117.195 96.4652C117.851 96.8317 118.337 97.3281 118.652 97.9545C118.968 98.581 119.125 99.2798 119.125 100.051C119.125 100.822 118.968 101.523 118.652 102.154C118.341 102.785 117.86 103.288 117.208 103.663C116.556 104.033 115.721 104.219 114.702 104.219H111.532V102.812H114.651C115.354 102.812 115.919 102.691 116.345 102.448C116.771 102.205 117.08 101.877 117.272 101.464C117.468 101.046 117.566 100.575 117.566 100.051C117.566 99.527 117.468 99.0582 117.272 98.6449C117.08 98.2315 116.769 97.9077 116.338 97.6733C115.908 97.4347 115.337 97.3153 114.625 97.3153H111.838V109H110.253ZM121.679 109V95.9091H123.264V107.594H129.349V109H121.679ZM142.34 102.455C142.34 103.835 142.09 105.028 141.592 106.034C141.093 107.04 140.409 107.815 139.54 108.361C138.671 108.906 137.678 109.179 136.561 109.179C135.445 109.179 134.452 108.906 133.583 108.361C132.713 107.815 132.029 107.04 131.531 106.034C131.032 105.028 130.783 103.835 130.783 102.455C130.783 101.074 131.032 99.8807 131.531 98.875C132.029 97.8693 132.713 97.0938 133.583 96.5483C134.452 96.0028 135.445 95.7301 136.561 95.7301C137.678 95.7301 138.671 96.0028 139.54 96.5483C140.409 97.0938 141.093 97.8693 141.592 98.875C142.09 99.8807 142.34 101.074 142.34 102.455ZM140.806 102.455C140.806 101.321 140.616 100.364 140.237 99.5845C139.862 98.8047 139.352 98.2145 138.709 97.8139C138.07 97.4134 137.354 97.2131 136.561 97.2131C135.769 97.2131 135.051 97.4134 134.407 97.8139C133.768 98.2145 133.259 98.8047 132.879 99.5845C132.504 100.364 132.317 101.321 132.317 102.455C132.317 103.588 132.504 104.545 132.879 105.325C133.259 106.104 133.768 106.695 134.407 107.095C135.051 107.496 135.769 107.696 136.561 107.696C137.354 107.696 138.07 107.496 138.709 107.095C139.352 106.695 139.862 106.104 140.237 105.325C140.616 104.545 140.806 103.588 140.806 102.455ZM144.927 109H143.265L148.072 95.9091H149.708L154.515 109H152.853L148.941 97.9801H148.839L144.927 109ZM145.54 103.886H152.239V105.293H145.54V103.886ZM160.594 109H156.554V95.9091H160.773C162.043 95.9091 163.129 96.1712 164.033 96.6953C164.936 97.2152 165.629 97.9631 166.11 98.9389C166.592 99.9105 166.832 101.074 166.832 102.429C166.832 103.793 166.589 104.967 166.104 105.951C165.618 106.931 164.911 107.685 163.982 108.214C163.053 108.738 161.923 109 160.594 109ZM158.139 107.594H160.491C161.574 107.594 162.471 107.385 163.183 106.967C163.894 106.55 164.425 105.955 164.774 105.184C165.124 104.413 165.298 103.494 165.298 102.429C165.298 101.372 165.126 100.462 164.781 99.6996C164.435 98.9325 163.92 98.3445 163.234 97.9354C162.548 97.522 161.693 97.3153 160.67 97.3153H158.139V107.594ZM169.491 109V95.9091H177.392V97.3153H171.077V101.739H176.983V103.145H171.077V107.594H177.494V109H169.491ZM184.289 109H180.249V95.9091H184.468C185.738 95.9091 186.825 96.1712 187.728 96.6953C188.631 97.2152 189.324 97.9631 189.805 98.9389C190.287 99.9105 190.528 101.074 190.528 102.429C190.528 103.793 190.285 104.967 189.799 105.951C189.313 106.931 188.606 107.685 187.677 108.214C186.748 108.738 185.619 109 184.289 109ZM181.835 107.594H184.187C185.269 107.594 186.166 107.385 186.878 106.967C187.589 106.55 188.12 105.955 188.469 105.184C188.819 104.413 188.994 103.494 188.994 102.429C188.994 101.372 188.821 100.462 188.476 99.6996C188.131 98.9325 187.615 98.3445 186.929 97.9354C186.243 97.522 185.388 97.3153 184.366 97.3153H181.835V107.594ZM200.039 95.9091L199.911 105.318H198.428L198.3 95.9091H200.039ZM199.17 109.102C198.854 109.102 198.584 108.989 198.358 108.763C198.132 108.538 198.019 108.267 198.019 107.952C198.019 107.636 198.132 107.366 198.358 107.14C198.584 106.914 198.854 106.801 199.17 106.801C199.485 106.801 199.756 106.914 199.982 107.14C200.207 107.366 200.32 107.636 200.32 107.952C200.32 108.161 200.267 108.352 200.161 108.527C200.058 108.702 199.92 108.842 199.745 108.949C199.575 109.051 199.383 109.102 199.17 109.102Z" fill="black"/>
</svg>
